<svg width="32" height="19" viewBox="0 0 32 19" fill="none" xmlns="http://www.w3.org/2000/svg">
<path opacity="0.5" d="M10.8619 5.61288L10.5806 5.9824L9.40387 7.5049C9.35828 7.57818 9.30468 7.64713 9.24387 7.7107C9.07686 7.89076 8.8619 8.02922 8.61935 8.11296C8.44206 8.17706 8.25281 8.20962 8.06193 8.20885C7.83446 8.20918 7.6097 8.16409 7.40363 8.07678C7.19757 7.98947 7.01526 7.86209 6.86968 7.70369V7.70369L6.74581 7.54232L5.19742 5.54506L6.70968 3.56417C6.71376 3.55726 6.71898 3.55095 6.72516 3.54546C6.86801 3.36114 7.05773 3.21068 7.27827 3.10682C7.49882 3.00295 7.74371 2.94873 7.99226 2.94873C8.2408 2.94873 8.4857 3.00295 8.70624 3.10682C8.92679 3.21068 9.1165 3.36114 9.25935 3.54546L9.28258 3.57586L10.8619 5.61288Z" fill="#FFD750"/>
<path d="M32 3.27424V16.8388C32 17.2109 31.8369 17.5678 31.5465 17.831C31.2561 18.0941 30.8623 18.242 30.4516 18.242H1.54839C1.13773 18.242 0.743891 18.0941 0.453512 17.831C0.163133 17.5678 0 17.2109 0 16.8388L0 3.27424C0.000463502 2.97615 0.105659 2.68595 0.300339 2.44568C0.495019 2.20542 0.769068 2.02758 1.08277 1.93794C1.39646 1.8483 1.73351 1.85152 2.04505 1.94714C2.35659 2.04275 2.62644 2.22579 2.81548 2.46972L2.83097 2.48843L5.18968 5.54045L6.73806 7.53771C6.77549 7.59385 6.81687 7.64775 6.86194 7.69908V7.69908C7.00752 7.85748 7.18983 7.98486 7.39589 8.07217C7.60196 8.15948 7.82672 8.20457 8.05419 8.20424C8.24507 8.20501 8.43432 8.17245 8.61161 8.10835C8.85277 8.02792 9.06759 7.89357 9.23613 7.71779C9.29693 7.65421 9.35054 7.58527 9.39613 7.51198L10.5806 5.98246L10.8619 5.61295L14.7097 0.617464V0.603432C14.8522 0.417219 15.0424 0.265064 15.264 0.159977C15.4855 0.0548905 15.7319 0 15.9819 0C16.232 0 16.4784 0.0548905 16.6999 0.159977C16.9215 0.265064 17.1117 0.417219 17.2542 0.603432V0.617464L21.1381 5.61295L21.4194 5.98246L22.5961 7.50496C22.6417 7.57825 22.6953 7.6472 22.7561 7.71077C22.9231 7.89083 23.1381 8.02929 23.3806 8.11303C23.5579 8.17713 23.7472 8.20968 23.9381 8.20892C24.1655 8.20925 24.3903 8.16416 24.5964 8.07685C24.8024 7.98954 24.9847 7.86215 25.1303 7.70375V7.70375C25.1754 7.65243 25.2168 7.59853 25.2542 7.54238L26.8026 5.54513L29.1613 2.5048C29.1654 2.49789 29.1706 2.49158 29.1768 2.48609C29.3638 2.24024 29.6324 2.05485 29.9437 1.9569C30.255 1.85894 30.5926 1.85352 30.9075 1.94143C31.2224 2.02934 31.4981 2.20598 31.6946 2.44568C31.8911 2.68539 31.9981 2.97564 32 3.27424V3.27424Z" fill="#FFD750"/>
<path opacity="0.5" d="M21.1381 5.61288L21.4194 5.9824L22.5961 7.5049C22.6417 7.57818 22.6953 7.64713 22.7561 7.7107C22.9231 7.89076 23.1381 8.02922 23.3806 8.11296C23.5579 8.17706 23.7472 8.20962 23.9381 8.20885C24.1655 8.20918 24.3903 8.16409 24.5964 8.07678C24.8024 7.98947 24.9847 7.86209 25.1303 7.70369V7.70369L25.2542 7.54232L26.8026 5.54506L25.2903 3.56417L25.2748 3.54546C25.132 3.36114 24.9423 3.21068 24.7217 3.10682C24.5012 3.00295 24.2563 2.94873 24.0077 2.94873C23.7592 2.94873 23.5143 3.00295 23.2938 3.10682C23.0732 3.21068 22.8835 3.36114 22.7406 3.54546L22.7174 3.57586L21.1381 5.61288Z" fill="#FFD750"/>
</svg>
